<?xml version="1.0" encoding="UTF-8"?>
<svg id="_Слой_1" data-name="Слой 1" xmlns="http://www.w3.org/2000/svg" viewBox="0 0 169.45 167.57">
  <defs>
    <style>
      .cls-1 {
        fill: #040404;
      }
    </style>
  </defs>
  <path class="cls-1" d="M137.62,8.5h7.64c7.29,0,17.08,7.81,20.49,13.97,11.61,21.03-5.64,46.23-29.19,43.57-2.85,17.22-15.2,31.86-31.02,38.78-2.18.95-4.55,1.45-6.63,2.6v34.28h27.17c2.47,0,6.68,2.58,8.34,4.45,6.66,7.52,2.5,19.21-7.07,21.32l-84.04.17c-10.55-1.18-15.35-14-7.99-21.87,1.56-1.67,5.77-4.08,8-4.08h27.17v-34.81c-18.92-4.66-34.49-21.58-37.65-40.85C11.21,68.01-5.1,48.48,1.47,27.42c2.68-8.57,13.27-18.91,22.65-18.91h7.64V2.29c0-.8,3.11-2.26,4.07-1.97h97.36c1.01-.36,4.42,1.07,4.42,1.97v6.22ZM132.29,6.02H37.09l.36,54.88c7.15,56.43,87.32,56.43,94.48,0l.36-54.88ZM31.76,14.19c-11.17-2.02-22.75,5.25-25.47,16.27-4.19,16.96,8.75,31.37,25.82,30.26l-.35-5.33c-13.08.83-22.94-9.34-20.51-22.46,1.81-9.83,11.01-14.87,20.51-13.41v-5.33ZM137.62,60.72c12.4.56,23.61-6.91,25.83-19.46,2.85-16.12-9.63-29.41-25.83-27.08v5.33c13.13-2.02,22.97,7.85,20.51,21.04-1.86,9.96-10.8,15.28-20.51,14.83v5.33ZM31.76,25.2c-9.37-2.11-16.38,3.99-15.24,13.64.89,7.48,8.15,11.93,15.24,10.87v-24.51ZM137.62,49.71c5.99.86,12.4-2.13,14.48-8.07,3.58-10.22-3.92-18.98-14.48-16.44v24.51ZM93.21,108.32c-5.58,1.04-11.46,1.04-17.05,0v33.39h17.05v-33.39ZM43.4,147.49c-8.58,1.76-7.86,13.93.98,14.82h80.63c9.39-.94,9.27-14.01.36-14.91l-81.96.09Z"/>
  <path class="cls-1" d="M108.37,45.91c.93,1,.97,2.54.11,3.62l-9.89,9.67c.02,4.22,1.95,8.96,2.09,13.05.08,2.43-.77,4.35-3.58,3.57-3.75-1.03-8.29-5.11-12.27-6.22-.42-.08-.75.15-1.11.27-3.41,1.12-8.54,5.4-11.73,6.05s-3.47-1.91-3.25-4.32c.36-3.99,1.92-8.31,2.04-12.4l-10.2-10.07c-.87-1.25-.07-2.71.87-3.65l14.65-2.22c.6-.36,4.91-10.79,6.15-12.5,1.31-1.81,3.56-1.8,4.87,0,1.23,1.7,5.49,12.04,6.08,12.39,2.78.85,13.59,1.07,15.17,2.77ZM85.04,38.7c-.83-.18-.57.11-.79.46-1.17,1.81-3.2,7.63-4.54,8.6-1.99,1.44-8.1,1.25-10.65,1.96l7.39,7.71-1.34,10.76c.32.44,7.76-4.73,9.76-4.64,1.76.08,9.1,5.07,9.42,4.64l-1.34-10.76,7.39-7.71c-2.5-.71-8.74-.57-10.65-1.96-1.43-1.04-3.61-7.2-4.63-9.05Z"/>
  <rect class="cls-1" x="56.59" y="2.56" width="19.58" height="1.27"/>
</svg>