<?xml version="1.0" encoding="UTF-8"?>
<svg id="_Слой_1" data-name="Слой 1" xmlns="http://www.w3.org/2000/svg" viewBox="0 0 169.45 169.79">
  <defs>
    <style>
      .cls-1 {
        fill: #010101;
      }

      .cls-2 {
        fill: #060606;
      }
    </style>
  </defs>
  <path d="M21.13,156.24V55.33c0-1.79,2.62-4.15,4.36-4.56,2.32-.56,14.69-.57,17.2-.15,1.54.26,3.14,1.33,3.95,2.66.16.27.92,1.94.92,2.05v100.91h7.93v-74.49c0-1.79,2.62-4.15,4.36-4.56,2.32-.56,14.69-.57,17.2-.15,1.54.26,3.14,1.33,3.95,2.66.16.27.92,1.94.92,2.05v74.49h7.93v-48.06c0-1.79,2.62-4.15,4.36-4.56,2.32-.56,14.69-.57,17.2-.15,1.54.26,3.14,1.33,3.95,2.66.16.27.92,1.94.92,2.05v48.06h7.93v-21.64c0-1.79,2.62-4.15,4.36-4.56,2.32-.56,14.69-.57,17.2-.15,1.54.26,3.14,1.33,3.95,2.66.16.27.92,1.94.92,2.05v21.64h8.75c1.71,0,3.44,4.9-.98,5.3H17.65c-5.26-.44-9.52-4.77-9.75-10.08l.16-123.07c.98-2.24,4.03-2.22,4.99,0l.15,123.06c.54,4.19,4.18,5.25,7.93,4.79ZM42.27,156.24V56.32l-.5-.5h-14.86l-.5.5v99.92h15.86ZM76.62,156.24v-73.5l-.5-.5h-14.86l-.5.5v73.5h15.86ZM110.98,156.24v-47.07l-.5-.5h-14.86l-.5.5v47.07h15.86ZM145.33,156.24v-20.64l-.5-.5h-14.86l-.5.5v20.64h15.86Z"/>
  <path class="cls-1" d="M89.43,8.34l63.35-.1c4.83.48,8.07,3.93,8.43,8.75,1.11,14.92-.87,31.21,0,46.27-.31,4.33-3.77,7.97-8.11,8.41-6.45.65-13.77-.61-20.31.17-3.6,4.94-6.09,10.8-9.99,15.44-.81.38-1.66.36-2.48,0-1.99-.87-7.75-13.24-9.99-15.44-6.54-.78-13.86.48-20.31-.17-4.23-.43-7.61-3.89-8.09-8.09V16.36c.5-4.07,3.49-7.26,7.51-8.01ZM121.87,79.61c.04-.39.17-.76.39-1.09,2.07-3.17,4.22-7.64,6.41-10.44.91-1.16,1.45-1.55,2.93-1.69,6.53-.6,14.44.79,20.83.02,2.18-.26,3.27-1.68,3.48-3.79,1.38-14.29-1.08-30.77,0-45.29-.07-2.06-1.42-3.54-3.48-3.79l-62.84.26c-1.41.52-2.23,1.72-2.41,3.21l.26,46.99c.4,1.22,1.64,2.19,2.9,2.38,6.17.95,14.66-.59,21.13,0,1.49.14,2.02.53,2.93,1.69l6.77,11.33.68.2Z"/>
  <path class="cls-2" d="M107.58,24.18c.52-.11.98-.12,1.5,0,2.16.48,9.79,10.15,12.34,11.8l11.7-11.36c2.75-1.74,5.47,1.1,3.77,3.77l-11.36,11.46,11.36,11.7c1.74,2.75-1.1,5.47-3.77,3.77l-11.46-11.36-11.7,11.36c-2.75,1.74-5.47-1.1-3.77-3.77l11.36-11.46-11.49-11.89c-.91-1.45-.2-3.65,1.52-4.02Z"/>
</svg>