<?xml version="1.0" encoding="UTF-8"?>
<svg id="_Слой_1" data-name="Слой 1" xmlns="http://www.w3.org/2000/svg" viewBox="0 0 130.81 169.79">
  <defs>
    <style>
      .cls-1 {
        fill: #050505;
      }

      .cls-2 {
        fill: #040404;
      }
    </style>
  </defs>
  <g>
    <path class="cls-1" d="M119.68,0c5.92,1.35,10.79,5.91,10.93,12.1.05,2.27,0,8.21-.01,10.25-.01,2.49-4.95,3.63-4.95,1.15,0-1.96-.11-7.71-.22-9.99-.17-3.43-1.32-6.4-4.62-7.85-.31-.14-1.81-.7-1.95-.7H24.88v103.25c0,1.01-1.74,2.21-2.79,2.15-.98-.05-2.51-1.6-2.51-2.48V4.97h-7.79c-3.21,0-6.79,4.69-6.79,7.79v121.81c1.24-.41,3.55-1.99,4.81-1.99h9.78v-13.09c0-.19.76-1.77,1-1.98,1.43-1.25,4.3-.11,4.3,1.65v13.42h49.06v-59.33h-36.63c-1.78,0-4.58-2.96-4.79-4.83.52-7.64-.77-16.35-.04-23.86.12-1.27.86-2.81,1.79-3.68.41-.38,2.98-1.77,3.37-1.77h36.29v-11.1c0-7.14,7.61-12.71,14.38-12.06,5.2.5,11.48,5.96,11.48,11.39v11.77h12.76c.18,0,1.62.56,1.94.72,2.39,1.15,3.33,3.55,3.55,6.07.45,5.23.5,16.03-.05,21.18-.22,2.08-.91,3.74-2.63,4.99-.26.19-2.01,1.18-2.13,1.18h-13.42v59.33h25.36l.5-.5V32.98c0-1.57,4.53-2.83,4.98.99v110.4c-.36,6.71-5.15,11.24-11.76,11.76-7.44.59-15.54-.6-23.05.15-2.21,3.15-3.99,12.8-8.14,13.41-1.65.24-3.24-.32-4.27-1.66-2.29-2.99-3.23-8.76-5.65-11.91h-33.64v10.11c0,.35-1.13,2.17-1.49,2.49-3.56,3.22-7.79-1.82-10.67-1.91-1.75-.05-5.38,2.97-7.9,2.93-2.06-.04-4.48-2.11-4.48-4.17v-9.45h-8.78c-5.27,0-11.08-6.44-10.79-11.75L.03,12.1C.59,5.98,4.87,1.63,10.63,0h109.05ZM79.41,33.48h14.92l.5-.5v-5.3c0-.46-1.04-2.74-1.38-3.26-3.36-5.17-11.66-4.46-13.8,1.34-.45,1.23-1.4,7.36-.23,7.72ZM79.41,38.12l-.5.5v5.63l.5.5h14.92l.5-.5v-5.63l-.5-.5h-14.92ZM73.94,44.08h-35.3c-.09,0-.9.51-.99.66v22.86c.08.16.61.67.66.67h35.63v-24.2ZM112.72,67.95v-23.04c0-.08-1.04-.83-1.16-.83h-11.77v24.2h12.1c.11,0,.5-.44.83-.33ZM84.55,139.87V49.88c-1.26-1-3.5-.36-5.09-.44l-.55.44v89.99h5.63ZM94.82,49.72h-5.3v90.16h5.3V49.72ZM73.94,137.55H10.47c-.32,0-2.24,1.03-2.65,1.33-4.19,3.05-3.26,9.95,1.58,11.68,1.78.63,7.85.92,9.69.58.37-.07.62-.17.83-.5v-5.63c0-.92,2.52-2.64,3.5-2.8,2.2-.34,15.84-.32,17.65.2,1.12.32,3.04,2.12,3.04,3.26v5.47h31.49c-1.25-4.42-1.87-8.98-1.66-13.59ZM125.65,137.55h-25.85c.24,4.71-.21,9.13-1.66,13.59h20.72c1.22,0,3.72-1.11,4.64-1.99.83-.8,2.16-3.38,2.16-4.47v-7.13ZM94.49,144.85h-15.25c1.4,6.54,5.13,12.34,7.46,18.56.67.14.46-.27.66-.65,1.87-3.58,4.02-8.6,5.52-12.39.71-1.78,1.54-3.57,1.6-5.53ZM39.14,147.17h-14.25v16.9c2.53-.36,4.49-2.41,7.13-2.34s4.59,2.01,7.12,2.34v-16.9Z"/>
    <path class="cls-2" d="M45.01,53.77l19.8-.05c2.88.46,3.15,4.59.02,4.96-6.13.72-13.61-.54-19.89-.01-2.43-.94-2.47-4.07.06-4.89Z"/>
  </g>
  <rect class="cls-2" x="19.58" y="102.78" width="5.3" height="24.11"/>
  <rect class="cls-2" x="125.65" y="19.97" width="4.98" height="24.11"/>
</svg>