<?xml version="1.0" encoding="UTF-8"?>
<svg id="_Слой_1" data-name="Слой 1" xmlns="http://www.w3.org/2000/svg" viewBox="0 0 129.83 169.79">
  <defs>
    <style>
      .cls-1 {
        fill: #010101;
      }

      .cls-2 {
        fill: #020202;
      }

      .cls-3 {
        fill: #050505;
      }

      .cls-4 {
        fill: #060606;
      }

      .cls-5 {
        fill: #030303;
      }

      .cls-6 {
        fill: #040404;
      }

      .cls-7 {
        fill: #070707;
      }
    </style>
  </defs>
  <path class="cls-6" d="M8.31,169.79c-4.53-1.5-7.83-4.87-8.29-9.79L0,24.95c-.12-4.38,5.13-10.11,9.47-10.11h5.81c-.89-6.94,1.2-13.18,8.55-14.84h62.2c2.04.43,3.92,1.47,5.56,2.73l35.3,35.37c1.51,1.98,2.31,4.28,2.53,6.76l-.02,100.21c-.09,4.3-5.14,9.79-9.45,9.79h-5.81c.26,5.22.32,9.78-4.33,13.08l-4.29,1.85H8.31ZM84.95,5.22H24.73c-1.27,0-3.57,2.09-3.89,3.41l-.1,137.28c1.02,2.67,3.31,3.44,5.97,3.65h91.27c2.57.21,6.13-2.11,6.13-4.82V44.87l-.5-.5h-36.5c-.42,0-2.16-1.41-2.16-1.82V5.22ZM120.12,39.06l-29.86-29.86v29.86h29.86ZM108.84,154.86H25.06c-4.36,0-9.53-4.64-9.78-9.13l-.15-125.27c-4.08-.98-9.26-.21-9.81,4.83v133.72c.25,2.96,2,5.37,5.13,5.47l94.98-.27c1.14-.37,3.41-2.34,3.41-3.56v-5.81Z"/>
  <path class="cls-2" d="M78.43,113.16c.86-.86,2.49-1.34,3.69-1.45,5.2-.47,17.14-.57,22.24.01,2.2.25,4.22,1.89,4.49,4.14.38,3.19.38,12.42,0,15.61-.31,2.55-2.39,3.94-4.8,4.15-7.19.63-15.29-.51-22.58,0-2.7-.55-4.22-2.04-4.48-4.81-.23-2.45-.33-13.85.27-15.68.12-.38.91-1.69,1.19-1.97ZM103.53,117.03h-21.23v13.27h21.23v-13.27Z"/>
  <path class="cls-4" d="M37.74,56.06l68.28-.07c4.29.4,3.67,5.85-.65,5.65H39.32c-3.87.1-5.52-3.94-1.58-5.58Z"/>
  <path class="cls-3" d="M36.28,75.34c.53-.49,1.63-.78,2.37-.79l68.48.24c2.58.8,2.27,4.75-.43,5.11H37.65c-2.08-.24-2.9-3.16-1.37-4.56Z"/>
  <path class="cls-5" d="M36.27,93.9c.45-.45,1.71-.77,2.38-.77l68.78.27c2.22,1.2,1.86,4.73-.73,5.08H38c-2.36-.03-3.26-3.03-1.72-4.57Z"/>
  <path class="cls-7" d="M38.42,18.91c8.88.57,19.42-1.06,28.12-.09,4.59.51,4.48,5.17.33,5.64-8.94,1.01-19.71-.73-28.85-.02-3.59-.95-3.27-5.08.4-5.53Z"/>
  <path class="cls-1" d="M37.41,130.38l30.86.18c2.62,1.41,1.88,4.72-1.07,5.06-9,1.05-20-.81-29.21,0-2.93-.07-3.4-4.62-.59-5.25Z"/>
  <path class="cls-5" d="M36.27,112.48c.49-.49,1.68-.71,2.38-.77,9.06-.82,19.36.66,28.56.01,2.95.35,3.61,3.51,1.15,5.14l-30.36.18c-2.35-.02-3.26-3.02-1.72-4.56Z"/>
  <path class="cls-1" d="M37.08,37.81l30.46-.07c2.99.1,2.97,4.9,0,4.99h-30.19c-2.34-.94-2.43-3.7-.27-4.91Z"/>
</svg>