<?xml version="1.0" encoding="UTF-8"?>
<svg id="_Слой_1" data-name="Слой 1" xmlns="http://www.w3.org/2000/svg" viewBox="0 0 169.45 118.89">
  <defs>
    <style>
      .cls-1 {
        fill: #040404;
      }
    </style>
  </defs>
  <path class="cls-1" d="M0,37.59L84.53,1.18l2.14.53,82.39,35.71c.51.5.54,5.85,0,6.3l-33.36,15.1c-.25.4.19,4.52.28,5.4.91,9.63,2.94,20.24,3.32,29.76.16,3.97-.4,5.88-3.49,8.44-11.37,9.42-43.75,10.8-58.23,10.28-10.9-.39-38.55-3.08-45.61-11.95-2.63-3.31-1.86-5.79-1.48-9.69,1.04-10.66,2.79-21.3,3.92-31.95l-14.88-6.64v21.17c5.21,1.09,6.1,7.93,3.92,12.02-.34.64-1.6,1.64-1.61,1.76-.07.7,1.02,4.2,1.23,5.35.86,4.67,3.12,16.08,2.27,20.26-1.45,7.16-16.93,7.29-17.72-.51-.15-1.51.19-4.62.33-6.29.53-6.27,1.98-12.46,3.23-18.6-3.98-4.45-3.54-12.3,2.74-14.19l-.02-23.12-.75-.9L0,43.54v-5.95ZM162.43,40.24L84.86,6.86,19.72,34.98c-.52.24-.49.63-.55,1.1-.13,1.15-.1,9.56.18,10.11l15.72,7.27c.12-8.05,3.77-10.71,10.85-12.81,20.69-6.13,58.56-6.31,79.06.48,5.01,1.66,8.44,3.33,9.59,8.94.15.74-.16,2.91.59,3.06,8.44-3.98,17.11-7.5,25.52-11.52.3-.14,2.33-.84,1.76-1.38ZM13.89,37.59c-.89.19-6.84,2.45-6.95,2.82-.2.69,2.43,1.3,2.86,1.77l4.09,1.7v-6.29ZM132.99,87.54l-3.66-36.2c-.68-3.44-2.32-3.88-5.34-4.92-19.23-6.63-59.39-6.7-78.59,0-2.22.77-3.71,1.35-4.55,3.72l-4.45,37.4c7.54-3.91,16.29-5.76,24.69-6.9,15.68-2.12,33.89-2.03,49.52.34,7.63,1.16,15.51,3.04,22.38,6.56ZM18.78,79.02c-3.68-1.56-6.33.58-4.09,4.25.67.51,3.52.46,4.09-.11.56-.84.65-3.49,0-4.14ZM77.68,84.66c-9.61.37-33.84,2.58-40.93,9.02-4.38,3.97,3.72,6.97,6.76,8.09,20.2,7.49,63.63,7.8,83.53-.51,5.49-2.29,10.67-5.03,2.99-9.26-12.3-6.79-38.35-7.88-52.34-7.34ZM16.87,88.87c-.85-.09-.53,0-.67.48-2.04,6.92-2.42,15.04-3.32,22.19l.22.85c2.29.74,4.87,1.12,6.92-.36-.03-7.75-1.75-15.53-3.15-23.17Z"/>
</svg>