<?xml version="1.0" encoding="UTF-8"?>
<svg id="_Слой_1" data-name="Слой 1" xmlns="http://www.w3.org/2000/svg" viewBox="0 0 148.87 169.79">
  <defs>
    <style>
      .cls-1 {
        fill: #010101;
      }

      .cls-2 {
        fill: #020202;
      }

      .cls-3 {
        fill: #050505;
      }

      .cls-4 {
        fill: #0e0e0e;
      }

      .cls-5 {
        fill: #0a0a0a;
      }

      .cls-6 {
        fill: #070707;
      }
    </style>
  </defs>
  <path class="cls-6" d="M6.86,127.89c-2.1-.05-6.89.73-6.4-2.64.07-.46,1.04-1.62,1.25-1.62h5.15v-25.56c-2.16-.09-7,.86-6.39-2.65.08-.46,1.02-1.61,1.25-1.61h5.15v-25.56c-2.16-.09-7,.86-6.39-2.65.08-.46,1.02-1.61,1.25-1.61h5.15v-25.56H1.71c-.22,0-1.17-1.16-1.25-1.61-.61-3.51,4.23-2.55,6.39-2.65v-14.02C6.86,11.65,15.7,2.21,23.89.61c35.1-1.18,70.41-.24,105.58-.48,10.2,1.29,18.52,9.72,19.41,20v129.96c-1.13,10.33-9.38,18.58-19.71,19.7l-102.96-.02c-8.84-.41-19.35-10.89-19.35-19.7v-22.19ZM42.36,3.99h-13.67c-7.46,0-17.57,7.61-17.57,15.44v14.73h7.45c.62-3.1,3.85-6.01,6.96-6.35,9.62-1.05,13.55,11.35,5.3,15.95-4.93,2.74-10.83-.07-12.26-5.34h-7.45v25.56h7.45c2.21-9.6,16.72-7.97,16.7,1.95-.01,9.97-14.03,11.96-16.7,2.31h-7.45v25.56h7.45c2.21-9.61,16.72-8.04,16.7,1.95s-14.48,11.83-16.7,1.95h-7.45v25.91h7.45c2.13-9.79,16.7-8.12,16.7,1.95s-14.58,11.74-16.7,1.95h-7.45v22.9c0,5.91,8.82,15.09,14.73,15.09h16.51V3.99ZM46.62,165.52h83.6c5.76,0,13.96-8.61,14.29-14.47.75-44.12.73-88.48,0-132.59-.63-5.69-8.58-14.11-14.29-14.11H46.62v161.17ZM26.62,31.8c-5.76.17-5.52,9.15.24,8.98s5.61-9.15-.24-8.98ZM26.3,61.57c-5.84.8-5.12,10.35,1.96,8.73,4.77-1.09,3.3-9.45-1.96-8.73ZM25.94,91.4c-4.11.67-4.94,7.19-.88,8.53,7.78,2.56,8.15-9.71.88-8.53ZM25.58,121.22c-4.88,1-4.09,10.03,2.32,8.71,5.36-1.1,4.07-10.02-2.32-8.71Z"/>
  <path class="cls-3" d="M91.99,20.43c25.59-2.61,42.06,25.13,26.84,46.01-13.68,18.78-43.75,13.53-50.65-8.57-5.25-16.81,6.05-35.63,23.8-37.44ZM93.41,24.33c-32.01,2.92-28.25,51.52,3.8,49.59,32.99-1.99,29.38-52.62-3.8-49.59Z"/>
  <path class="cls-4" d="M65.33,139.68l59.93-.08c3.06.21,3.05,4.07,0,4.27h-58.94c-2.6-.13-3.27-2.95-.98-4.19Z"/>
  <path class="cls-1" d="M64.45,118.57c-1.12-1.12-.19-3.54,1.49-3.48h59.31c2.05.04,2.92,2.17,1.44,3.6l-60.39.34c-.55-.05-1.46-.06-1.85-.45Z"/>
  <path class="cls-2" d="M64.45,127.97c.39-.39,1.3-.41,1.85-.45l60.39.34.84,1.62c-.14,1.23-1.07,1.93-2.27,1.96l-59.84-.17c-1.43-.31-1.9-2.36-.96-3.31Z"/>
  <path class="cls-3" d="M93.74,35.67c6.34-1.29,11.29,4.25,8.88,10.3-.81,2.03-2.74,2.7-3.76,4.05-1.3,1.72-.6,5.3-3.13,5.36-3.61.09-1.44-6.23.09-8.05,1.29-1.52,3.35-1.97,3.35-4.46,0-3.6-4.82-4.67-6.35-1.73-.8,1.53-.29,4.52-3.34,3.61-3.69-1.09.56-8.33,4.26-9.08Z"/>
  <path class="cls-5" d="M95.16,58.36c2.93-.79,3.58,4.1.9,4.51s-3.36-3.84-.9-4.51Z"/>
</svg>