<?xml version="1.0" encoding="UTF-8"?>
<svg id="_Слой_1" data-name="Слой 1" xmlns="http://www.w3.org/2000/svg" viewBox="0 0 169.45 129.09">
  <defs>
    <style>
      .cls-1 {
        fill: #010101;
      }
    </style>
  </defs>
  <path class="cls-1" d="M0,113.85V15.24C1.97,7.03,8.15.85,16.72.02l135.69-.02c9.35.8,16.43,7.98,17.05,17.37l-.02,94.99c-.89,9-7.97,16.05-17.02,16.73l-135.69-.02c-8.57-.83-14.75-7.02-16.72-15.22ZM152.23,9.94H17.21l67.39,67.15L152.23,9.94ZM9.93,111.87l47.63-47.44L9.93,17.22v94.65ZM159.51,111.87V17.22l-47.63,47.2,47.63,47.44ZM152.23,119.15l-47.49-47.33-16.55,16.23c-2.42,1.8-4.53,1.8-6.95,0l-16.55-16.23-47.49,47.33h135.02Z"/>
</svg>