<?xml version="1.0" encoding="UTF-8"?>
<svg id="_Слой_1" data-name="Слой 1" xmlns="http://www.w3.org/2000/svg" viewBox="0 0 169.45 169.79">
  <defs>
    <style>
      .cls1 {
        fill: #050505;
      }

      .cls-2 {
        fill: #030303;
      }
    </style>
  </defs>
  <path class="cls-2" d="M37.73,169.79c-4.74-1.74-7.82-6.12-6.29-11.25H15.05c-6.92,0-14.91-8.49-15.05-15.4V15.73C.55,5.15,13.58-3,23.25,1.07c1.74.73,4.87,3.85,4.87,5.72v21.68h53.78L107.89,2.48c3.1-2.67,8.08-2.92,11.42-.49,1.74,1.26,11.29,10.8,12.26,12.56,2.99,5.41.07,10.14-3.82,13.92h13.57V6.78c0-.59,1.63-3.25,2.14-3.81,1.38-1.51,3.59-2.47,5.62-2.65,10.17-.93,17.93,4.37,20.37,14.25v130.07c-1.32,4.14-3.17,7.67-6.65,10.4-7.77,6.09-20.82,2.56-30.09,3.5.75,5.36-1.73,9.73-6.95,11.25H37.73ZM5.62,16.05v113.03c3.34-3.16,7.32-4.08,11.75-4.63,2.06-.26,4.49.73,5.11-2.17l-.07-114.41c-.68-3.03-7.3-1.87-9.5-1.07-3.76,1.37-6.81,5.26-7.29,9.26ZM113.44,6.02c-2.03.23-3.45,2.49-4.88,3.75l14.72,14.72c1.92-2.1,4.91-3.71,3.33-6.96-.48-.98-9.13-9.77-10.28-10.57-.83-.58-1.86-1.04-2.89-.93ZM163.83,129.08V16.05c0-2.4-2.7-6.53-4.65-7.92-2.4-1.7-11.3-4-12.14-.27l-.07,114.41c.62,2.9,3.05,1.92,5.11,2.17,4.56.57,8.24,1.5,11.75,4.63ZM104.42,13.91c-.57.77-4.22,3.8-4.11,4.42l14.66,14.42,4.18-4.11-14.72-14.72ZM95.86,22.53l-46.87,46.81,4.96,4.98,47.32-46.69c-.87-.66-4.79-5.22-5.41-5.11ZM105.41,31.78l-46.69,46.66c-.22.25-.13.4,0,.66.66,1.28,4.03,3.54,4.98,4.96l46.69-46.66c.22-.25.13-.4,0-.66-.66-1.28-4.03-3.54-4.98-4.96ZM75.79,34.09H28.62l-.5.5v89.03c0,1.63-2.83,4.86-4.29,5.64-4.63,2.49-8.97-.56-14.09,3.78-8.11,6.87-3.44,19.06,6.95,19.88,6.16.49,13.13-.24,19.37-.18l82.91-82.9c4.18-4.2,13.73.03,13.73,5.46v77.61h21.02c.98,0,3.62-1.16,4.57-1.72,7.84-4.64,7.02-16.15-1.19-19.86-5.01-2.26-10.55.92-14.41-4.79-.32-.48-1.38-2.55-1.38-2.92V34.59l-.5-.5h-18.87l-56.45,56.08c-7.6,2.78-15.74,4.34-23.64,6.17-3.04-.06-5.26-2.45-5.15-5.49.13-3.58,3.8-16.84,5.08-20.75.24-.73.43-1.48.83-2.15l32.67-32.86.49-1ZM127.09,82.08v-6.12c0-1.54-3.83-3.19-4.97-1.33l-85.24,85.55c-.57,1.66.32,3.13,1.82,3.84l84.92.16c1.06.29,3.46-1.2,3.46-2.16v-6.45c-7.8,1.41-7.38-6.84,0-5.63v-5.63c-7.8,1.41-7.38-6.84,0-5.63v-5.63c-7.7,1.37-7.59-7.01,0-5.62v-5.44c-.08-.59-5.61.99-5.66-3-.05-3.33,3.27-2.89,5.66-2.82v-5.63c-7.38,1.21-7.8-7.04,0-5.63v-5.63c-2.2.2-5.53.04-5.65-2.82-.14-3.27,3.34-2.9,5.65-2.81v-5.63c-7.58,1-7.58-6.96,0-5.96ZM57.91,86.71l-11.58-11.58-3.64,15.22,15.22-3.64Z"/>
  <path class="cls1" d="M109.46,102.02c3.08-.49,5.93,1.68,6.34,4.75-.88,14.07,1.27,29.79.04,43.67-.24,2.71-1.99,4.86-4.8,5.13-14.15-1.03-30.11,1.31-44.05,0-4.89-.46-6.29-5.78-3.3-9.28l44.08-43.62c.51-.26,1.11-.55,1.68-.64ZM110.21,149.93v-41.7l-42.03,42.03,42.03-.33Z"/>
  <rect class="cls-2" x="24.6" y="51.75" width=".79" height="6.17"/>
</svg>